<svg width="27" height="25" viewBox="0 0 27 25" fill="none" xmlns="http://www.w3.org/2000/svg">
<path d="M1 2C0.447715 2 0 2.44772 0 3C0 3.55228 0.447715 4 1 4V2ZM3.22222 3L4.2026 2.80288C4.10872 2.33593 3.69852 2 3.22222 2V3ZM2.68629 5.40762C2.79515 5.94907 3.32233 6.29975 3.86378 6.19089C4.40523 6.08202 4.75591 5.55484 4.64705 5.01339L2.68629 5.40762ZM5.44444 13.0525C4.89216 13.0525 4.44444 13.5002 4.44444 14.0525C4.44444 14.6048 4.89216 15.0525 5.44444 15.0525V13.0525ZM16.5556 14.0525V15.0525C16.9336 15.0525 17.2793 14.8394 17.449 14.5016L16.5556 14.0525ZM21 5.21051L21.8935 5.65961C22.0493 5.34962 22.0333 4.98101 21.8512 4.68568C21.6691 4.39035 21.347 4.21051 21 4.21051V5.21051ZM3.66667 4.21051C3.11438 4.21051 2.66667 4.65822 2.66667 5.21051C2.66667 5.76279 3.11438 6.21051 3.66667 6.21051V4.21051ZM4.46406 14.2496C4.57293 14.7911 5.10011 15.1418 5.64156 15.0329C6.18301 14.924 6.53369 14.3969 6.42482 13.8554L4.46406 14.2496ZM4.64705 5.01339C4.53818 4.47194 4.011 4.12126 3.46955 4.23012C2.9281 4.33899 2.57742 4.86617 2.68629 5.40762L4.64705 5.01339ZM6.14968 14.7615C6.54123 14.372 6.54291 13.7388 6.15342 13.3473C5.76393 12.9557 5.13076 12.9541 4.73921 13.3436L6.14968 14.7615ZM2.89667 16.5869L2.19143 15.8779L2.89667 16.5869ZM16.5556 19.4735C17.1078 19.4735 17.5556 19.0258 17.5556 18.4735C17.5556 17.9213 17.1078 17.4735 16.5556 17.4735V19.4735ZM16.5556 18.4735H15.5556C15.5556 18.7397 15.6616 18.9948 15.8503 19.1825L16.5556 18.4735ZM18.7778 20.684L18.0725 21.393C18.2599 21.5794 18.5135 21.684 18.7778 21.684V20.684ZM7.66667 20.684L6.80179 20.1821C6.71328 20.3345 6.66667 20.5077 6.66667 20.684H7.66667ZM7.66667 22.8945H6.66667C6.66667 23.0709 6.71328 23.244 6.80179 23.3965L7.66667 22.8945ZM1 4H3.22222V2H1V4ZM2.24184 3.19712L2.68629 5.40762L4.64705 5.01339L4.2026 2.80288L2.24184 3.19712ZM5.44444 15.0525H16.5556V13.0525H5.44444V15.0525ZM17.449 14.5016L21.8935 5.65961L20.1065 4.7614L15.6621 13.6034L17.449 14.5016ZM21 4.21051H3.66667V6.21051H21V4.21051ZM6.42482 13.8554L4.64705 5.01339L2.68629 5.40762L4.46406 14.2496L6.42482 13.8554ZM4.73921 13.3436L2.19143 15.8779L3.6019 17.2958L6.14968 14.7615L4.73921 13.3436ZM2.19143 15.8779C0.851119 17.2111 1.81103 19.4735 3.68222 19.4735V17.4735C3.64208 17.4735 3.62553 17.4635 3.61734 17.4578C3.60473 17.4489 3.58938 17.4322 3.57888 17.407C3.56837 17.3817 3.56775 17.3602 3.57003 17.3471C3.57136 17.3395 3.57483 17.3228 3.6019 17.2958L2.19143 15.8779ZM3.68222 19.4735H16.5556V17.4735H3.68222V19.4735ZM17.5556 18.4735C17.5556 17.81 18.0978 17.263 18.7778 17.263V15.263C17.0032 15.263 15.5556 16.6954 15.5556 18.4735H17.5556ZM18.7778 17.263C19.4578 17.263 20 17.81 20 18.4735H22C22 16.6954 20.5524 15.263 18.7778 15.263V17.263ZM20 18.4735C20 19.1371 19.4578 19.684 18.7778 19.684V21.684C20.5524 21.684 22 20.2516 22 18.4735H20ZM19.483 19.9751L17.2608 17.7646L15.8503 19.1825L18.0725 21.393L19.483 19.9751ZM8.53154 21.186C8.80675 20.7119 9.37106 20.4771 9.90878 20.6204L10.4239 18.6878C9.01854 18.3133 7.53237 18.9233 6.80179 20.1821L8.53154 21.186ZM9.90878 20.6204C10.4456 20.7635 10.8134 21.2451 10.8134 21.7893H12.8134C12.8134 20.3325 11.8301 19.0627 10.4239 18.6878L9.90878 20.6204ZM10.8134 21.7893C10.8134 22.3335 10.4456 22.8151 9.90878 22.9582L10.4239 24.8907C11.8301 24.5159 12.8134 23.2461 12.8134 21.7893H10.8134ZM9.90878 22.9582C9.37106 23.1015 8.80675 22.8667 8.53154 22.3926L6.80179 23.3965C7.53237 24.6553 9.01854 25.2653 10.4239 24.8907L9.90878 22.9582ZM8.66667 22.8945V20.684H6.66667V22.8945H8.66667Z" fill="white"/>
<circle cx="21" cy="6" r="6" fill="white"/>
<path d="M23.5263 5.52632H21.4737V3.47368C21.4737 3.21474 21.2653 3 21 3C20.7411 3 20.5263 3.20842 20.5263 3.47368V5.52632H18.4737C18.2147 5.52632 18 5.73474 18 6C18 6.13263 18.0505 6.24632 18.1389 6.33474C18.2274 6.42316 18.3411 6.47368 18.4737 6.47368H20.5263V8.52632C20.5263 8.65895 20.5768 8.77263 20.6653 8.86105C20.7537 8.94947 20.8674 9 21 9C21.2589 9 21.4737 8.79158 21.4737 8.52632V6.47368H23.5263C23.7853 6.47368 24 6.26526 24 6C24 5.74105 23.7916 5.52632 23.5263 5.52632Z" fill="#ACD9B2" stroke="#ACD9B2"/>
</svg>
