<svg width="26" height="27" viewBox="0 0 26 27" fill="none" xmlns="http://www.w3.org/2000/svg">
<path d="M1 4C0.447715 4 0 4.44772 0 5C0 5.55228 0.447715 6 1 6V4ZM3.22222 5L4.2026 4.80288C4.10872 4.33593 3.69852 4 3.22222 4V5ZM2.68629 7.40762C2.79515 7.94907 3.32233 8.29975 3.86378 8.19089C4.40523 8.08202 4.75591 7.55484 4.64705 7.01339L2.68629 7.40762ZM5.44444 15.0525C4.89216 15.0525 4.44444 15.5002 4.44444 16.0525C4.44444 16.6048 4.89216 17.0525 5.44444 17.0525V15.0525ZM16.5556 16.0525V17.0525C16.9336 17.0525 17.2793 16.8394 17.449 16.5016L16.5556 16.0525ZM21 7.21051L21.8935 7.65961C22.0493 7.34962 22.0333 6.98101 21.8512 6.68568C21.6691 6.39035 21.347 6.21051 21 6.21051V7.21051ZM3.66667 6.21051C3.11438 6.21051 2.66667 6.65822 2.66667 7.21051C2.66667 7.76279 3.11438 8.21051 3.66667 8.21051V6.21051ZM4.46406 16.2496C4.57293 16.7911 5.10011 17.1418 5.64156 17.0329C6.18301 16.924 6.53369 16.3969 6.42482 15.8554L4.46406 16.2496ZM4.64705 7.01339C4.53818 6.47194 4.011 6.12126 3.46955 6.23012C2.9281 6.33899 2.57742 6.86617 2.68629 7.40762L4.64705 7.01339ZM6.14968 16.7615C6.54123 16.372 6.54291 15.7388 6.15342 15.3473C5.76393 14.9557 5.13076 14.9541 4.73921 15.3436L6.14968 16.7615ZM2.89667 18.5869L2.19143 17.8779L2.89667 18.5869ZM16.5556 21.4735C17.1078 21.4735 17.5556 21.0258 17.5556 20.4735C17.5556 19.9213 17.1078 19.4735 16.5556 19.4735V21.4735ZM16.5556 20.4735H15.5556C15.5556 20.7397 15.6616 20.9948 15.8503 21.1825L16.5556 20.4735ZM18.7778 22.684L18.0725 23.393C18.2599 23.5794 18.5135 23.684 18.7778 23.684V22.684ZM7.66667 22.684L6.80179 22.1821C6.71328 22.3345 6.66667 22.5077 6.66667 22.684H7.66667ZM7.66667 24.8945H6.66667C6.66667 25.0709 6.71328 25.244 6.80179 25.3965L7.66667 24.8945ZM1 6H3.22222V4H1V6ZM2.24184 5.19712L2.68629 7.40762L4.64705 7.01339L4.2026 4.80288L2.24184 5.19712ZM5.44444 17.0525H16.5556V15.0525H5.44444V17.0525ZM17.449 16.5016L21.8935 7.65961L20.1065 6.7614L15.6621 15.6034L17.449 16.5016ZM21 6.21051H3.66667V8.21051H21V6.21051ZM6.42482 15.8554L4.64705 7.01339L2.68629 7.40762L4.46406 16.2496L6.42482 15.8554ZM4.73921 15.3436L2.19143 17.8779L3.6019 19.2958L6.14968 16.7615L4.73921 15.3436ZM2.19143 17.8779C0.851119 19.2111 1.81103 21.4735 3.68222 21.4735V19.4735C3.64208 19.4735 3.62553 19.4635 3.61734 19.4578C3.60473 19.4489 3.58938 19.4322 3.57888 19.407C3.56837 19.3817 3.56775 19.3602 3.57003 19.3471C3.57136 19.3395 3.57483 19.3228 3.6019 19.2958L2.19143 17.8779ZM3.68222 21.4735H16.5556V19.4735H3.68222V21.4735ZM17.5556 20.4735C17.5556 19.81 18.0978 19.263 18.7778 19.263V17.263C17.0032 17.263 15.5556 18.6954 15.5556 20.4735H17.5556ZM18.7778 19.263C19.4578 19.263 20 19.81 20 20.4735H22C22 18.6954 20.5524 17.263 18.7778 17.263V19.263ZM20 20.4735C20 21.1371 19.4578 21.684 18.7778 21.684V23.684C20.5524 23.684 22 22.2516 22 20.4735H20ZM19.483 21.9751L17.2608 19.7646L15.8503 21.1825L18.0725 23.393L19.483 21.9751ZM8.53154 23.186C8.80675 22.7119 9.37106 22.4771 9.90878 22.6204L10.4239 20.6878C9.01854 20.3133 7.53237 20.9233 6.80179 22.1821L8.53154 23.186ZM9.90878 22.6204C10.4456 22.7635 10.8134 23.2451 10.8134 23.7893H12.8134C12.8134 22.3325 11.8301 21.0627 10.4239 20.6878L9.90878 22.6204ZM10.8134 23.7893C10.8134 24.3335 10.4456 24.8151 9.90878 24.9582L10.4239 26.8907C11.8301 26.5159 12.8134 25.2461 12.8134 23.7893H10.8134ZM9.90878 24.9582C9.37106 25.1015 8.80675 24.8667 8.53154 24.3926L6.80179 25.3965C7.53237 26.6553 9.01854 27.2653 10.4239 26.8907L9.90878 24.9582ZM8.66667 24.8945V22.684H6.66667V24.8945H8.66667Z" fill="#C7C7C7"/>
<circle cx="20" cy="6" r="6" fill="#ACD9B2"/>
<path fill-rule="evenodd" clip-rule="evenodd" d="M22.5228 4.2423C22.2877 4.03196 21.9261 4.05138 21.7157 4.2872L19.1181 7.19045L17.9786 6.03547C17.7569 5.81068 17.3949 5.80828 17.1701 6.03016C16.9455 6.25196 16.9429 6.61403 17.1648 6.83882L18.7316 8.42661C18.8391 8.53559 18.9858 8.59657 19.1387 8.59657C19.1432 8.59657 19.1478 8.59657 19.1528 8.59657C19.3105 8.59281 19.4596 8.52378 19.5646 8.406L22.5678 5.04924C22.7782 4.81419 22.7579 4.45254 22.5228 4.2423Z" fill="white" stroke="white" stroke-width="0.8"/>
</svg>
